HIERARCHY
ROOT Hips
{
  OFFSET 40.9192 92.6879 18.85
  CHANNELS 6 Xposition Yposition Zposition Zrotation Xrotation Yrotation
  JOINT LeftUpLeg
  {
    OFFSET 8.64259 1.95398 -2.38835
    CHANNELS 3 Zrotation Xrotation Yrotation
    JOINT LeftLeg
    {
      OFFSET 43.7702 0 0
      CHANNELS 3 Zrotation Xrotation Yrotation
      JOINT LeftFoot
      {
        OFFSET 40.6238 0 0
        CHANNELS 3 Zrotation Xrotation Yrotation
        JOINT LeftToeBase
        {
          OFFSET 12.7242 0 0
          CHANNELS 3 Zrotation Xrotation Yrotation
          End Site
          {
            OFFSET 0 0 0
          }
        }
      }
    }
  }
  JOINT RightUpLeg
  {
    OFFSET -8.2249 1.95398 -2.59336
    CHANNELS 3 Zrotation Xrotation Yrotation
    JOINT RightLeg
    {
      OFFSET 43.5653 0 0
      CHANNELS 3 Zrotation Xrotation Yrotation
      JOINT RightFoot
      {
        OFFSET 40.6238 0 0
        CHANNELS 3 Zrotation Xrotation Yrotation
        JOINT RightToeBase
        {
          OFFSET 12.7242 0 0
          CHANNELS 3 Zrotation Xrotation Yrotation
          End Site
          {
            OFFSET 0 0 0
          }
        }
      }
    }
  }
  JOINT Spine
  {
    OFFSET 0.165834 0.87714 6.61349
    CHANNELS 3 Zrotation Xrotation Yrotation
    JOINT Spine1
    {
      OFFSET 7.38963 1.71661e-005 0
      CHANNELS 3 Zrotation Xrotation Yrotation
      JOINT Spine2
      {
        OFFSET 11.9445 1.14441e-005 0
        CHANNELS 3 Zrotation Xrotation Yrotation
        JOINT Spine3
        {
          OFFSET 14.7254 4.19617e-005 0
          CHANNELS 3 Zrotation Xrotation Yrotation
          JOINT Spine4
          {
            OFFSET 10.9679 0 0
            CHANNELS 3 Zrotation Xrotation Yrotation
            JOINT RightShoulder
            {
              OFFSET 2.46616 -1.6653 3.69651
              CHANNELS 3 Zrotation Xrotation Yrotation
              JOINT RightArm
              {
                OFFSET 13.0012 0 0
                CHANNELS 3 Zrotation Xrotation Yrotation
                JOINT RightForeArm
                {
                  OFFSET 28.7848 1.52588e-005 0
                  CHANNELS 3 Zrotation Xrotation Yrotation
                  JOINT RightHand
                  {
                    OFFSET 26.5688 1.52588e-005 0
                    CHANNELS 3 Zrotation Xrotation Yrotation
                    End Site
                    {
                      OFFSET 0 0 0
                    }
                  }
                }
              }
            }
            JOINT LeftShoulder
            {
              OFFSET 2.38034 -1.29275 -3.7523
              CHANNELS 3 Zrotation Xrotation Yrotation
              JOINT LeftArm
              {
                OFFSET 16.3182 6.10351e-005 0
                CHANNELS 3 Zrotation Xrotation Yrotation
                JOINT LeftForeArm
                {
                  OFFSET 27.0901 0 0
                  CHANNELS 3 Zrotation Xrotation Yrotation
                  JOINT LeftHand
                  {
                    OFFSET 24.5451 1.52588e-005 0
                    CHANNELS 3 Zrotation Xrotation Yrotation
                    End Site
                    {
                      OFFSET 0 0 0
                    }
                  }
                }
              }
            }
            JOINT Neck
            {
              OFFSET 5.0226 -0.0266342 0
              CHANNELS 3 Zrotation Xrotation Yrotation
              JOINT Head
              {
                OFFSET 6.69363 2.86102e-005 0
                CHANNELS 3 Zrotation Xrotation Yrotation
                End Site
                {
                  OFFSET 0 0 0
                }
              }
            }
          }
        }
      }
    }
  }
}
MOTION
Frames:	14
Frame Time:	0.0416667
-251.335 95.7273 -233.684 63.4217 -51.0667 68.5549 -165.262 42.7563 89.3205 -13.4644 7.74178 -8.94709 39.8739 -12.8458 -9.85383 37.583 7.20985 11.4877 167.347 67.6858 105.851 -71.293 -29.4992 -5.17277 82.6253 -10.012 -7.8648 53.5253 56.6294 142.474 1.42782 5.91156 -89.2831 15.0417 3.18115 0.967357 3.37439 3.22063 0.826275 -19.1825 2.7433 1.87923 0.830115 2.74329 1.87923 94.7121 -43.0323 -94.6635 33.1275 -13.4215 17.5464 -27.743 -12.6749 -98.2397 -31.7172 5.63908 -22.996 -87.5305 -43.6212 81.246 -48.4386 14.2853 42.7743 6.10631 -0.319423 -76.422 39.6761 1.66563 0.19714 7.09202 -1.06983 -1.48254 1.01434 -0.760211 0.661377 
-245.535 91.6066 -228.366 74.4618 -58.3155 74.2893 -161.912 36.7313 89.7088 -28.5492 15.9661 -13.2169 52.6794 -5.78375 0.538953 31.5764 2.01851 3.36002 -175.927 62.0189 93.8546 -92.1448 -25.0259 -5.29034 92.7625 -18.9482 -8.68712 43.2935 37.8924 153.382 1.83644 6.75505 -88.8913 13.3355 4.17917 1.68566 1.67045 4.2493 1.49982 -20.8965 3.47934 2.86462 -0.883862 3.47936 2.86462 95.5792 -45.0549 -92.8984 35.1106 -19.7052 19.852 -18.3741 -10.2064 -87.6267 -33.9023 3.06678 -13.3038 -89.236 -45.3555 78.8866 -43.0301 15.25 38.0743 5.89668 0.0526834 -75.694 43.3613 1.99772 0.579718 6.47011 -0.741899 -3.23628 1.38227 -0.119366 1.20574 
-237.437 89.0348 -221.703 82.6554 -54.8173 81.2098 -162.006 32.8294 86.7695 -44.1264 16.2038 -11.591 67.06 7.17816 7.6484 30.2443 1.33239 -2.15673 -174.74 48.1824 89.0822 -105.745 -14.3407 -2.9556 104.499 -26.8389 -5.0356 28.12 -35.8929 157.17 1.07117 7.26833 -88.7751 12.3061 2.70869 2.13779 0.636189 2.80012 2.0165 -21.8953 1.94132 2.85268 -1.88262 1.94132 2.85267 95.2742 -46.8209 -93.1377 35.8463 -21.8336 20.8716 -13.9885 -10.0012 -81.1892 -29.5487 -1.13366 -0.337583 -91.2484 -47.3963 76.2404 -35.4361 15.5112 31.0173 5.14983 -0.206461 -75.3118 40.9064 2.17497 1.32445 7.69737 0.170184 -5.46339 2.13024 1.28403 2.10038 
-229.309 88.0175 -215.662 90.3863 -45.981 86.8303 -167.028 24.6234 83.7477 -50.7127 17.1729 -6.67717 71.2099 12.5473 10.5587 37.4179 6.808 1.16489 177.446 38.7248 89.4481 -112.453 -3.46822 -2.12393 81.6345 -15.9862 -6.51438 -82.3469 -23.4826 4.75052 -0.152297 8.04371 -88.6993 10.7756 0.296616 2.55542 -0.897787 0.408778 2.53989 -23.413 -0.484839 2.5265 -3.40031 -0.48484 2.5265 95.1336 -47.9419 -93.2039 34.6134 -20.4342 20.7742 -10.7837 -14.4754 -71.1212 -33.9544 -0.538152 -2.46301 -94.4756 -46.8817 71.153 -28.2289 16.2045 20.2386 4.18408 0.343718 -71.9268 42.4518 1.77692 0.158327 11.2612 0.300791 -7.08106 0.81019 1.88969 2.17741 
-221.076 89.2417 -208.765 91.1532 -44.2851 89.3022 -168.701 16.4301 86.1866 -49.0339 19.5226 -5.06158 69.6308 12.0401 11.964 44.4477 12.622 3.04138 176.59 42.7998 91.5648 -105.299 5.34182 -1.95141 44.1009 -0.972639 -0.568653 27.52 0.709121 -10.2393 -0.511285 8.06967 -88.9674 10.7351 -0.542104 2.10304 -0.937512 -0.449039 2.12485 -23.4625 -1.14897 1.84305 -3.44986 -1.14901 1.84303 95.4964 -49.5804 -92.4081 32.5367 -20.3714 25.1929 -10.4499 -17.1792 -67.3495 -33.2838 -0.439648 -2.61093 -93.8161 -45.8656 71.864 -25.9829 15.765 14.2995 7.33783 0.0942069 -76.222 40.4684 2.44457 2.08613 9.92711 0.875939 -7.82644 1.08785 2.58683 3.35136 
-212.287 92.2674 -201.179 91.8104 -43.2958 91.6243 -170.271 6.99657 89.9855 -42.7948 21.7989 -3.38187 62.4599 3.89051 5.26387 48.6358 16.6389 6.22664 176.603 42.2608 93.2302 -88.8389 3.10117 -1.57711 49.1086 -0.445416 -0.137076 29.9848 0.31616 -4.67518 -0.808455 7.97424 -89.2757 10.9319 -1.27449 1.56085 -0.7394 -1.20456 1.61541 -23.2751 -1.68462 1.10569 -3.26248 -1.68462 1.10568 96.0927 -50.4942 -91.3722 31.6578 -20.6608 31.1008 -11.5078 -18.7964 -66.5452 -24.6526 -0.897708 -0.12374 -92.1215 -44.4419 74.0991 -27.243 15.2503 11.5709 10.9997 -0.730495 -82.5109 40.4728 2.72929 2.81313 7.84829 1.6185 -8.75564 0.82937 3.43653 5.21216 
-203.507 94.9377 -193.052 92.1042 -41.7663 91.7951 -171.273 -2.14527 90.3457 -34.802 26.1504 -1.70693 49.6661 -6.46467 -2.84946 45.7253 14.8124 10.8441 176.526 38.8083 92.9709 -67.257 -3.95275 -1.06005 52.5242 0.672962 0.656534 32.3568 0.661745 -12.5406 -1.20018 7.83986 -89.4878 11.2063 -2.15045 1.23132 -0.463583 -2.09418 1.32478 -23.0118 -2.42105 0.527808 -2.99918 -2.42104 0.527803 95.8621 -48.6741 -91.953 32.6986 -18.8903 36.6304 -14.6381 -21.125 -65.5481 -27.5168 -0.220027 -3.09594 -91.1108 -43.613 75.4829 -29.8007 15.7633 10.7959 12.5476 -2.71821 -87.893 38.9827 2.54984 2.62436 6.69413 2.48826 -7.99738 0.205439 4.08668 6.2989 
-194.687 96.5726 -184.642 90.4347 -41.4041 91.5002 -170.712 -7.24457 94.4351 -29.4124 28.7936 -0.574838 39.2538 -13.0654 -8.26684 30.4864 0.855372 6.54229 176.047 33.3844 93.6907 -38.8427 -2.85528 0.423112 49.7186 2.17222 1.94905 34.1612 0.425865 -9.33472 -1.38332 7.53917 -89.7309 11.8078 -2.62443 0.816132 0.13923 -2.58599 0.930906 -22.4174 -2.7483 -0.0109396 -2.40474 -2.74832 -0.0109509 96.7518 -48.171 -90.606 32.6296 -18.3376 41.4655 -15.0944 -21.0128 -65.0441 -23.24 -0.355643 -2.49825 -90.5689 -42.711 76.1168 -32.2693 17.3687 12.2666 11.4464 -4.81251 -93.441 38.7446 1.66958 0.304973 7.28547 2.74783 -8.90581 -1.96145 4.47537 8.05083 
-185.932 97.1193 -176.391 88.6519 -38.8403 89.3922 -170.823 -9.19433 95.4256 -31.4373 23.8428 0.506063 33.5561 -16.0442 -9.98944 22.8284 -6.54965 9.11132 174.507 26.6957 91.8819 -9.68498 -3.56337 2.36366 41.2386 4.73998 4.69945 31.6932 0.516791 -9.54634 -1.82284 7.32242 -89.8257 12.2461 -3.54033 0.744507 0.579625 -3.50412 0.899761 -21.9942 -3.6002 -0.355338 -1.98158 -3.60021 -0.35533 97.3217 -46.3442 -89.8882 33.1662 -17.3422 44.4098 -16.2153 -21.2494 -64.5026 -22.7651 -0.0782347 -3.77554 -90.8621 -42.458 75.5741 -33.2512 18.6539 13.4646 15.0486 -7.12584 -99.3706 36.2905 2.33916 2.54839 10.3998 2.78685 -8.67844 -4.52019 4.52263 8.69205 
-177.476 96.2908 -168.12 89.2909 -37.6152 87.7157 -170.134 -9.86759 95.7615 -39.3392 16.232 0.483469 39.9625 -12.2488 -6.38884 23.3004 -6.16176 9.3657 173.091 25.8301 90.2025 -5.61707 0.155298 3.4733 39.1443 5.55013 5.65709 31.3297 0.405896 -6.35033 -2.02761 7.23484 -89.7204 12.4279 -3.89591 1.00428 0.762309 -3.84793 1.175 -21.8198 -4.01735 -0.214922 -1.8072 -4.01734 -0.214913 97.1807 -45.9805 -90.1564 32.5189 -15.1108 45.7306 -12.7117 -18.7066 -63.2108 -18.3061 -0.144538 -3.90611 -91.0999 -41.5367 74.9345 -34.4487 20.2141 14.2328 15.3545 -7.37477 -98.9274 34.7011 1.94195 1.69973 11.253 2.89393 -7.1341 -5.47385 4.2967 8.1065 
-169.799 93.406 -161.115 92.6022 -40.4528 88.5578 -168.736 -8.19746 95.0612 -53.363 9.86298 -0.457144 42.511 -10.7126 -2.43392 25.4167 -3.40034 4.76913 172.746 27.0504 90.6194 -20.6156 -3.02878 3.20369 47.7492 2.84342 2.94293 24.7386 0.120949 -4.01325 -1.73651 7.38671 -89.6506 12.119 -3.28655 1.06482 0.451602 -3.23647 1.20855 -22.1167 -3.45447 0.0267007 -2.10407 -3.45447 0.0266983 97.5144 -46.7648 -89.5339 30.0306 -14.7501 42.4084 -6.56458 -16.3998 -60.3695 -13.9671 -0.297481 -3.00698 -91.9276 -41.7287 73.6366 -35.1209 20.7256 15.268 12.9263 -5.10472 -91.6369 35.8151 1.67033 0.712916 9.68081 3.1599 -4.8938 -4.5132 4.09274 7.54828 
-162.52 90.159 -155.285 97.2277 -42.9224 94.2552 -166.87 -2.67264 97.3743 -69.1982 7.96362 -0.247232 43.7211 -9.31411 0.223492 30.0426 0.654366 3.96243 173.821 27.0095 94.5913 -40.8267 -3.19847 2.27407 67.6641 -3.61619 -1.99539 25.1015 0.207545 -4.29602 -1.35029 7.84163 -90.0034 11.1976 -2.68916 0.2536 -0.470587 -2.67539 0.371789 -23.0277 -2.64097 -0.566912 -3.01501 -2.64097 -0.566912 96.7173 -47.8511 -90.6969 27.2865 -14.0178 34.5594 -14.2085 -22.1209 -59.4716 -17.9411 -0.55777 -1.29268 -93.7841 -43.9785 71.3398 -34.0335 18.616 15.5836 12.3174 -2.34002 -82.1667 34.4614 1.67614 0.942516 7.60708 3.03072 -2.48365 -1.78921 3.60413 6.54823 
-155.623 88.3671 -149.762 98.4065 -44.8729 99.9217 -166.724 8.51594 100.096 -80.8808 5.7356 0.690344 46.7659 -6.07901 0.577565 35.6926 5.42245 4.85131 175.863 24.4545 100.047 -49.6208 0.693973 1.5598 77.1307 -7.77322 -3.59506 27.4136 0.156273 -2.94197 -0.770545 8.25374 -90.7455 10.3544 -1.87627 -1.31757 -1.3158 -1.93244 -1.2337 -23.8523 -1.39362 -1.82052 -3.83965 -1.3936 -1.82051 94.5329 -49.0856 -93.9818 24.7196 -13.2532 22.6309 -11.4232 -21.9397 -55.8753 -18.8999 -0.764616 -0.219095 -96.2529 -48.8652 69.1045 -30.8901 16.3635 12.4143 9.51306 3.74717 -66.6029 37.1634 2.58715 3.07136 9.02516 2.46588 1.09966 -1.08256 2.37542 4.91558 
-149.611 88.1268 -143.833 97.951 -47.7179 96.3747 -167.181 18.1522 94.6774 -82.3268 3.95073 0.165184 51.3679 -1.90696 3.71173 43.123 11.829 5.894 177.178 21.1967 97.7036 -53.9958 0.427692 -0.682006 82.62 -10.1741 -4.16388 31.8151 0.273481 -3.26714 -0.275516 8.238 -90.3158 10.3934 -0.693471 -0.566361 -1.27746 -0.717724 -0.535307 -23.8124 -0.491195 -0.748599 -3.79975 -0.491192 -0.748601 94.3785 -48.5056 -94.3132 25.819 -12.5142 12.8874 -16.5113 -24.3873 -60.0181 -21.2472 -0.970769 0.78508 -94.8 -47.8784 70.9693 -33.831 16.9374 14.0725 3.91823 5.77923 -51.7909 35.3933 2.19787 2.30838 8.34457 1.44765 1.08204 0.292913 1.44173 4.83114 
